# xmcd CD database file
#
# Track frame offsets:
#	150
#	24240
#	44290
#	80922
#	107165
#	131860
#	158542
#	187430
#	213387
#	238457
#
# Disc length: 3681 seconds
#
# Revision: 0
# Processed by: cddbd v1.4PL0 Copyright (c) Steve Scherf et al.
# Submitted via: CDex 1.50
#
DISCID=920e5f0a
DTITLE=Anthony Wonsey Trio - Another Perspective
DYEAR=1996
DGENRE=Jazz
TTITLE0=Blue Pearl
TTITLE1=Lover
TTITLE2=Song For Constance
TTITLE3=Wise Man Willis
TTITLE4=I'Ll Keep Loving You
TTITLE5=Marmalade
TTITLE6=Herbie'S Hands
TTITLE7=We'Re All Together
TTITLE8=Who Can I Turn To?
TTITLE9=Duid Deed
EXTD=YEAR: 1996
EXTT0=
EXTT1=
EXTT2=
EXTT3=
EXTT4=
EXTT5=
EXTT6=
EXTT7=
EXTT8=
EXTT9=
PLAYORDER=
